<svg width="68" height="65" viewBox="0 0 68 65" fill="none" xmlns="http://www.w3.org/2000/svg">
<circle opacity="0.15" cx="41" cy="38" r="27" fill="#5C8EEA"/>
<path d="M22.9463 0.14917C24.6447 0.14917 26.1825 1.09242 27.0317 2.48485C27.4448 3.1586 27.7202 3.98956 27.6514 4.86544C27.6055 5.53919 27.812 6.21295 28.1792 6.84178C29.3498 8.75075 31.9433 9.46942 33.963 8.39141C36.2352 7.08883 39.1042 7.87487 40.4124 10.0983L41.9502 12.7484C43.2814 14.9717 42.5469 17.824 40.2518 19.1041C38.3009 20.2495 37.6123 22.7873 38.7829 24.7187C39.1501 25.3251 39.5632 25.8416 40.2059 26.156C41.0092 26.5827 41.6289 27.2565 42.0649 27.9303C42.9141 29.3227 42.8453 31.0295 42.019 32.5342L40.4124 35.2292C39.5632 36.6666 37.9796 37.5649 36.35 37.5649C35.5467 37.5649 34.6516 37.3403 33.9171 36.8912C33.3204 36.5094 32.6318 36.3746 31.8974 36.3746C29.6252 36.3746 27.7202 38.2387 27.6514 40.4621C27.6514 43.0448 25.5398 45.066 22.9004 45.066H19.779C17.1166 45.066 15.005 43.0448 15.005 40.4621C14.9591 38.2387 13.0542 36.3746 10.782 36.3746C10.0246 36.3746 9.33601 36.5094 8.76222 36.8912C8.02777 37.3403 7.10971 37.5649 6.32936 37.5649C4.67685 37.5649 3.09319 36.6666 2.24398 35.2292L0.660322 32.5342C-0.188885 31.0744 -0.234788 29.3227 0.614419 27.9303C0.981644 27.2565 1.67019 26.5827 2.45054 26.156C3.09319 25.8416 3.50632 25.3251 3.89649 24.7187C5.04407 22.7873 4.35552 20.2495 2.40464 19.1041C0.132437 17.824 -0.602013 14.9717 0.706226 12.7484L2.24398 10.0983C3.57517 7.87487 6.42116 7.08883 8.71632 8.39141C10.7131 9.46942 13.3066 8.75075 14.4772 6.84178C14.8444 6.21295 15.051 5.53919 15.005 4.86544C14.9591 3.98956 15.2116 3.1586 15.6477 2.48485C16.4969 1.09242 18.0347 0.194087 19.7101 0.14917H22.9463ZM21.3626 16.2743C17.7592 16.2743 14.8444 19.1041 14.8444 22.6301C14.8444 26.156 17.7592 28.9633 21.3626 28.9633C24.966 28.9633 27.812 26.156 27.812 22.6301C27.812 19.1041 24.966 16.2743 21.3626 16.2743Z" fill="#5C8EEA"/>
</svg>
