<svg width="495" height="495" viewBox="0 0 495 495" fill="none" xmlns="http://www.w3.org/2000/svg">
<path opacity="0.15" fill-rule="evenodd" clip-rule="evenodd" d="M250.634 494.585C318.921 494.585 374.28 439.226 374.28 370.938H314.127C314.127 406.005 285.7 434.432 250.633 434.432H247.292C212.225 434.432 183.798 406.005 183.798 370.938L123.646 370.938C123.646 439.226 179.004 494.585 247.292 494.585H250.634Z" fill="#0E0E0E"/>
<path opacity="0.15" d="M494.584 370.938C428.142 370.938 374.28 317.076 374.28 250.634L374.28 243.95C374.28 177.508 428.142 123.646 494.584 123.646L494.584 370.938Z" fill="#0E0E0E"/>
<mask id="mask0_1288_502" style="mask-type:alpha" maskUnits="userSpaceOnUse" x="123" y="123" width="248" height="248">
<path d="M123.646 247.293C123.646 179.005 179.004 123.646 247.292 123.646H370.938V247.293C370.938 315.581 315.58 370.939 247.292 370.939C179.004 370.939 123.646 315.581 123.646 247.293Z" fill="#FCD05E"/>
</mask>
<g mask="url(#mask0_1288_502)">
<path opacity="0.25" d="M124 247.646C124 179.358 179.358 124 247.646 124H371.292V247.646C371.292 315.934 315.934 371.292 247.646 371.292C179.358 371.292 124 315.934 124 247.646Z" fill="#0E0E0E"/>
<circle cx="247" cy="247" r="75" fill="#FBED6E"/>
<path d="M233 241.711V273.422" stroke="#0E0E0E" stroke-width="4" stroke-linecap="round"/>
<path d="M247 225.855V262.851" stroke="#0E0E0E" stroke-width="4" stroke-linecap="round"/>
<path d="M261 210L261 283.992" stroke="#0E0E0E" stroke-width="4" stroke-linecap="round"/>
</g>
<g opacity="0.25">
<path fill-rule="evenodd" clip-rule="evenodd" d="M432.76 0C398.616 0 370.937 27.6791 370.937 61.8231C370.937 95.967 398.616 123.646 432.76 123.646C449.653 123.646 464.964 116.871 476.123 105.889L388.147 19.5725L390.487 17.1871L478.441 103.481C488.468 92.4922 494.583 77.8717 494.583 61.8231C494.583 27.6791 466.904 0 432.76 0Z" fill="#0E0E0E"/>
</g>
<path opacity="0.15" d="M123.646 370.938L3.34117 247.292H123.646V370.938Z" fill="#0E0E0E"/>
<path opacity="0.25" d="M123.646 494.584L3.34117 370.938H123.646V494.584Z" fill="#0E0E0E"/>
<rect x="372.854" y="371.399" width="120.646" height="120.646" rx="60.3231" stroke="#0E0E0E" stroke-width="3"/>
<rect x="402.929" y="401.476" width="60.494" height="60.494" rx="30.247" stroke="#0E0E0E" stroke-width="3"/>
<rect x="122.146" y="125.5" width="120.646" height="120.646" rx="60.3231" transform="rotate(90 122.146 125.5)" stroke="#0E0E0E" stroke-width="3"/>
<path d="M61.6461 126L61.6461 245" stroke="#0E0E0E" stroke-width="3"/>
<path d="M61.0001 186L121 186" stroke="#0E0E0E" stroke-width="3"/>
<rect x="248.5" y="1.5" width="120.646" height="120.646" rx="60.3231" stroke="#0E0E0E" stroke-width="3"/>
<path d="M298.878 42H319C319.552 42 320 42.4477 320 43V63.8265" stroke="#0E0E0E" stroke-width="3" stroke-linecap="round"/>
<path d="M297 65.2347L319.061 43.4082" stroke="#0E0E0E" stroke-width="3" stroke-linecap="round"/>
<path d="M297 81H320.5" stroke="#0E0E0E" stroke-width="3" stroke-linecap="round"/>
<rect x="188.639" y="1.5" width="180.798" height="120.646" rx="60.3231" stroke="#0E0E0E" stroke-width="3"/>
<rect x="125.5" y="1.5" width="244.292" height="120.646" rx="60.3231" stroke="#0E0E0E" stroke-width="3"/>
</svg>
