<svg width="1920" height="825" viewBox="0 0 1920 825" fill="none" xmlns="http://www.w3.org/2000/svg">
<circle cx="69" cy="69" r="69" transform="matrix(-1 0 0 1 652 490)" fill="#FBED6E"/>
<circle opacity="0.1" cx="25.5" cy="25.5" r="25.5" transform="matrix(-1 0 0 1 447 98)" fill="#0E0E0E"/>
<circle opacity="0.3" cx="49.1901" cy="49.1901" r="49.1901" transform="matrix(-1 0 0 1 257 395)" fill="white"/>
<path opacity="0.1" d="M366.72 280.073C379.025 236.9 354 191.926 310.827 179.621L73.5605 112L29.0016 268.346L266.268 335.967C309.442 348.272 354.416 323.247 366.72 280.073Z" fill="#0E0E0E"/>
<path opacity="0.1" d="M417.226 593.711C408.164 544.165 360.653 511.346 311.107 520.408L111.871 556.848C62.3248 565.91 29.506 613.421 38.5679 662.967C47.6297 712.513 95.1407 745.331 144.687 736.27L343.923 699.83C393.469 690.768 426.288 643.257 417.226 593.711Z" fill="white"/>
<rect width="118.767" height="7.9824" transform="matrix(-0.954095 0.299503 0.299503 0.954095 499.609 304)" fill="#FBED6E"/>
<rect width="100.163" height="7.9824" transform="matrix(-0.93917 -0.343454 -0.343454 0.93917 434 431.401)" fill="white"/>
<path d="M656.293 318.212C649.216 304.058 631.019 280.805 613.832 267.662L542.5 334L599.678 310.124C604.059 315.516 614.438 328.119 628.996 339.443C647.194 353.597 663.37 332.366 656.293 318.212Z" stroke="white" stroke-width="2.5" stroke-linecap="round"/>
<path d="M613.832 267.662L678.537 321.245C694.713 328.322 714.933 317.201 706.845 300.014C696.787 278.64 681.233 270.021 678.537 267.662L727.067 280.805C755.372 287.882 773.504 254.531 754.361 247.442C727.064 237.332 661.349 226.211 629.001 215.09" stroke="white" stroke-width="2.5" stroke-linecap="round"/>
<path d="M-106 410.213C-106 410.213 204.377 367.75 243.806 357.641C283.234 347.531 419.72 242.387 419.72 242.387C419.72 242.387 549.127 135.221 589.567 131.177C630.007 127.133 786.713 193.859 786.713 193.859C805.921 200.936 820.48 213.472 818.053 227.222C815.02 244.409 800.866 251.486 761.437 246.431C729.894 242.387 660.337 225.2 627.985 215.09L528.907 352.586C515.764 371.795 542.455 421.131 588.556 408.191C646.183 392.015 697.744 377.861 740.206 377.861C749.249 377.861 775.591 391.004 766.492 411.224C757.393 431.444 575.881 535.89 569.347 538.609C560 542.5 538.006 547.708 507.676 549.73C483.413 551.348 361.418 567.254 303.455 575.005L-24.1094 662.962" stroke="white" stroke-width="2.5" stroke-linecap="round"/>
<path d="M818.318 222.167C805.512 219.134 775.452 202.958 769.79 186.782" stroke="white" stroke-width="2.5" stroke-linecap="round"/>
<path d="M761.702 254.518C758.669 254.518 744.515 252.496 733.394 241.375" stroke="white" stroke-width="2.5" stroke-linecap="round"/>
<path d="M707.108 303.047C702.053 299.003 693.965 291.926 692.954 281.816" stroke="white" stroke-width="2.5" stroke-linecap="round"/>
<path d="M656.558 326.3C651.503 322.256 647.459 314.168 646.448 304.058" stroke="white" stroke-width="2.5" stroke-linecap="round"/>
<path d="M415.94 244.764C439.193 215.445 482.666 166.917 506.93 156.807C516.447 152.841 522.291 151.489 541.5 152.5" stroke="white" stroke-width="2.5" stroke-linecap="round"/>
<path d="M744.662 430.541L744.746 430.461L744.843 430.398C757.894 421.864 764.356 414.109 766.539 407.508C768.683 401.027 766.764 395.455 762.456 390.954C758.266 386.577 750.993 384.716 742.602 385.938C734.247 387.155 724.979 391.415 717.072 398.984C709.062 406.65 702.862 414.991 699.786 422.515C696.696 430.072 696.873 436.446 700.934 440.689C705.089 445.031 711.902 446.395 719.875 444.661C727.823 442.933 736.713 438.149 744.662 430.541Z" stroke="white" stroke-width="2.5"/>
<rect opacity="0.25" width="125.364" height="125.364" rx="30" transform="matrix(-0.866025 0.5 0.5 0.866025 817 238)" fill="#0E0E0E"/>
<path d="M813.136 290.168C794.843 279.606 771.33 285.907 760.768 304.2C750.207 322.493 756.507 346.006 774.8 356.567C793.093 367.129 816.606 360.828 827.167 342.535C837.729 324.242 831.429 300.729 813.136 290.168ZM764.121 306.136C766.613 301.82 769.919 298.24 773.726 295.48L765.447 342.712C758.285 332.115 757.297 317.955 764.121 306.136ZM776.736 353.214C773.814 351.527 771.241 349.466 769.012 347.117L793.004 326.264L787.657 356.686C787.647 356.857 787.617 357.062 787.626 357.2C783.887 356.546 780.222 355.227 776.736 353.214ZM806.173 311.734C808.024 312.67 809.765 313.41 809.765 313.41C811.474 314.13 812.669 311.677 810.985 310.838C810.985 310.838 805.927 308.404 802.806 306.603C799.884 304.916 795.148 301.695 795.148 301.695C793.593 300.708 791.975 303.05 793.545 304.089C793.545 304.089 794.957 305.17 796.493 306.189L793.781 321.622L775.931 337.433L783.764 298.796C785.595 299.764 787.336 300.504 787.336 300.504C789.045 301.225 790.24 298.772 788.556 297.933C788.556 297.933 783.498 295.499 780.377 293.698C779.812 293.372 779.149 292.988 778.47 292.553C788.526 287.557 800.775 287.502 811.2 293.521C818.968 298.006 824.334 305.044 826.828 312.991C826.695 312.914 826.582 312.804 826.449 312.728C823.527 311.041 819.96 312.39 818.369 315.145C816.951 317.602 817.171 320.518 817.246 323.837C817.225 326.481 817.077 329.804 814.949 333.489C813.473 336.046 810.771 338.425 807.114 341.847L798.376 350.082L806.173 311.734ZM828.424 324.182C828.212 333.159 824.505 341.7 818.09 347.984C811.675 354.269 803.061 357.8 794.081 357.827L818.43 336.738C822.576 333.466 825.115 330.372 826.859 327.351C827.492 326.256 828.02 325.188 828.424 324.182Z" fill="white"/>
</svg>
