<?xml version="1.0" encoding="UTF-8"?>
<svg xmlns="http://www.w3.org/2000/svg" width="40" height="36" viewBox="0 0 40 36" fill="none">
  <path d="M33.1223 22.0391C36.9222 22.0391 40 25.0651 40 28.7984C40 32.5296 36.9222 35.5556 33.1223 35.5556C29.3245 35.5556 26.2445 32.5296 26.2445 28.7984C26.2445 25.0651 29.3245 22.0391 33.1223 22.0391ZM16.1666 25.9159C17.831 25.9159 19.1821 27.2433 19.1821 28.8786C19.1821 30.5116 17.831 31.8412 16.1666 31.8412H3.01554C1.3511 31.8412 0 30.5116 0 28.8786C0 27.2433 1.3511 25.9159 3.01554 25.9159H16.1666ZM6.87774 0C10.6777 0 13.7555 3.02597 13.7555 6.75712C13.7555 10.4905 10.6777 13.5164 6.87774 13.5164C3.07998 13.5164 0 10.4905 0 6.75712C0 3.02597 3.07998 0 6.87774 0ZM36.9867 3.79665C38.6489 3.79665 40 5.12406 40 6.75712C40 8.39237 38.6489 9.71977 36.9867 9.71977H23.8356C22.1712 9.71977 20.8201 8.39237 20.8201 6.75712C20.8201 5.12406 22.1712 3.79665 23.8356 3.79665H36.9867Z" fill="white"></path>
</svg>
