<?xml version="1.0" encoding="UTF-8"?>
<svg xmlns="http://www.w3.org/2000/svg" width="41" height="39" viewBox="0 0 41 39" fill="none">
  <path d="M13.0498 0.627018C14.3098 0.665338 15.5298 0.885338 16.7118 1.28734H16.8298C16.9098 1.32534 16.9698 1.36734 17.0098 1.40534C17.4518 1.54734 17.8698 1.70734 18.2698 1.92734L19.0298 2.26734C19.3298 2.42734 19.6898 2.72534 19.8898 2.84734C20.0898 2.96534 20.3098 3.08734 20.4898 3.22534C22.7118 1.52734 25.4098 0.607338 28.1898 0.627018C29.4518 0.627018 30.7118 0.805338 31.9098 1.20734C39.2918 3.60734 41.9518 11.7073 39.7298 18.7873C38.4698 22.4053 36.4098 25.7073 33.7118 28.4053C29.8498 32.1453 25.6118 35.4653 21.0498 38.3253L20.5498 38.6273L20.0298 38.3053C15.4518 35.4653 11.1898 32.1453 7.29178 28.3853C4.61178 25.6873 2.54978 22.4053 1.26978 18.7873C-0.990221 11.7073 1.66978 3.60734 9.13178 1.16534C9.71178 0.965338 10.3098 0.825338 10.9098 0.747338H11.1498C11.7118 0.665338 12.2698 0.627018 12.8298 0.627018H13.0498ZM30.8698 6.94734C30.0498 6.66534 29.1498 7.10734 28.8498 7.94734C28.5698 8.78734 29.0098 9.70734 29.8498 10.0053C31.1318 10.4853 31.9898 11.7473 31.9898 13.1453V13.2073C31.9518 13.6653 32.0898 14.1073 32.3698 14.4473C32.6498 14.7873 33.0698 14.9853 33.5098 15.0273C34.3298 15.0053 35.0298 14.3473 35.0898 13.5053V13.2673C35.1498 10.4653 33.4518 7.92734 30.8698 6.94734Z" fill="white"></path>
</svg>
