<svg width="1919" height="824" viewBox="0 0 1919 824" fill="none" xmlns="http://www.w3.org/2000/svg">
<circle cx="69" cy="69" r="69" transform="matrix(-1 0 0 1 652 489)" fill="#FCD05E"/>
<circle opacity="0.8" cx="25.5" cy="25.5" r="25.5" transform="matrix(-1 0 0 1 447 96.9999)" fill="#5C8EEA"/>
<circle opacity="0.3" cx="49.1901" cy="49.1901" r="49.1901" transform="matrix(-1 0 0 1 257 394)" fill="white"/>
<path opacity="0.4" d="M366.72 279.074C379.025 235.9 354 190.926 310.827 178.621L73.5604 111L29.0016 267.346L266.268 334.967C309.442 347.272 354.416 322.247 366.72 279.074V279.074Z" fill="#3C6FCD"/>
<path opacity="0.1" d="M417.226 592.711C408.164 543.165 360.653 510.346 311.107 519.408L111.871 555.848C62.3248 564.91 29.5059 612.421 38.5678 661.967V661.967C47.6297 711.513 95.1407 744.331 144.687 735.269L343.923 698.829C393.469 689.768 426.288 642.257 417.226 592.711V592.711Z" fill="white"/>
<rect width="118.767" height="7.9824" transform="matrix(-0.954095 0.299503 0.299503 0.954095 499.609 303)" fill="#FCD05E"/>
<rect width="100.163" height="7.9824" transform="matrix(-0.93917 -0.343454 -0.343454 0.93917 434 430.401)" fill="white"/>
<path d="M656.293 317.212C649.216 303.058 631.019 279.805 613.832 266.662L542.5 333L599.678 309.124C604.059 314.516 614.438 327.119 628.996 338.443C647.194 352.597 663.37 331.366 656.293 317.212Z" stroke="white" stroke-width="2.5" stroke-linecap="round"/>
<path d="M613.832 266.662L678.537 320.245C694.713 327.322 714.933 316.201 706.845 299.014C696.786 277.64 681.233 269.021 678.537 266.662L727.067 279.805C755.372 286.882 773.504 253.531 754.361 246.442C727.064 236.332 661.349 225.211 629.001 214.09" stroke="white" stroke-width="2.5" stroke-linecap="round"/>
<path d="M-106 409.213C-106 409.213 204.377 366.75 243.806 356.641C283.234 346.531 419.72 241.387 419.72 241.387C419.72 241.387 549.127 134.221 589.567 130.177C630.007 126.133 786.713 192.859 786.713 192.859C805.921 199.936 820.48 212.472 818.053 226.222C815.02 243.409 800.866 250.486 761.437 245.431C729.894 241.387 660.337 224.2 627.985 214.09L528.907 351.586C515.764 370.795 542.455 420.131 588.556 407.191C646.183 391.015 697.744 376.861 740.206 376.861C749.249 376.861 775.591 390.004 766.492 410.224C757.393 430.444 575.881 534.89 569.347 537.609C560 541.5 538.006 546.708 507.676 548.73C483.412 550.348 361.418 566.254 303.454 574.005L-24.1094 661.962" stroke="white" stroke-width="2.5" stroke-linecap="round"/>
<path d="M818.318 221.167C805.512 218.134 775.452 201.958 769.79 185.782" stroke="white" stroke-width="2.5" stroke-linecap="round"/>
<path d="M761.702 253.519C758.669 253.519 744.515 251.497 733.394 240.376" stroke="white" stroke-width="2.5" stroke-linecap="round"/>
<path d="M707.108 302.047C702.053 298.003 693.965 290.926 692.954 280.816" stroke="white" stroke-width="2.5" stroke-linecap="round"/>
<path d="M656.558 325.3C651.503 321.256 647.459 313.168 646.448 303.058" stroke="white" stroke-width="2.5" stroke-linecap="round"/>
<path d="M415.94 243.764C439.193 214.445 482.666 165.917 506.93 155.807C516.447 151.841 522.291 150.489 541.5 151.5" stroke="white" stroke-width="2.5" stroke-linecap="round"/>
<path d="M744.662 429.541L744.746 429.461L744.843 429.397C757.894 420.864 764.356 413.109 766.539 406.508C768.683 400.027 766.764 394.455 762.456 389.953C758.266 385.577 750.993 383.715 742.601 384.938C734.247 386.155 724.979 390.415 717.071 397.984C709.062 405.65 702.862 413.991 699.786 421.515C696.696 429.072 696.873 435.446 700.934 439.689C705.089 444.03 711.902 445.395 719.875 443.661C727.823 441.932 736.713 437.149 744.662 429.541Z" stroke="white" stroke-width="2.5"/>
<rect width="125.364" height="125.364" rx="30" transform="matrix(-0.866025 0.5 0.5 0.866025 817 237)" fill="#3C6FCD"/>
<path d="M813.135 289.168C794.842 278.606 771.329 284.907 760.768 303.2C750.206 321.493 756.507 345.006 774.8 355.567C793.093 366.129 816.606 359.828 827.167 341.535C837.729 323.242 831.428 299.729 813.135 289.168ZM764.121 305.136C766.613 300.82 769.919 297.24 773.726 294.48L765.447 341.712C758.285 331.115 757.297 316.955 764.121 305.136ZM776.736 352.214C773.814 350.527 771.241 348.466 769.012 346.117L793.004 325.264L787.657 355.686C787.647 355.857 787.617 356.062 787.626 356.2C783.887 355.546 780.222 354.227 776.736 352.214ZM806.173 310.734C808.023 311.67 809.765 312.41 809.765 312.41C811.474 313.131 812.669 310.677 810.984 309.838C810.984 309.838 805.926 307.405 802.806 305.603C799.884 303.916 795.148 300.695 795.148 300.695C793.593 299.708 791.975 302.05 793.545 303.089C793.545 303.089 794.957 304.17 796.493 305.19L793.78 320.622L775.931 336.433L783.763 297.796C785.595 298.765 787.336 299.505 787.336 299.505C789.045 300.225 790.24 297.772 788.556 296.933C788.556 296.933 783.498 294.499 780.377 292.698C779.812 292.372 779.148 291.988 778.47 291.553C788.526 286.557 800.775 286.502 811.199 292.521C818.968 297.006 824.334 304.044 826.828 311.991C826.695 311.914 826.582 311.805 826.449 311.728C823.527 310.041 819.96 311.39 818.369 314.145C816.95 316.602 817.17 319.518 817.246 322.837C817.225 325.481 817.077 328.804 814.949 332.489C813.473 335.046 810.771 337.425 807.114 340.847L798.375 349.082L806.173 310.734ZM828.423 323.182C828.212 332.16 824.505 340.7 818.09 346.984C811.675 353.269 803.06 356.801 794.08 356.828L818.43 335.738C822.576 332.466 825.115 329.373 826.859 326.351C827.492 325.256 828.02 324.188 828.423 323.182Z" fill="white"/>
</svg>
