<svg width="1920" height="320" viewBox="0 0 1920 320" fill="none" xmlns="http://www.w3.org/2000/svg">
<path d="M981 204.5C980.6 191.3 988.5 153 999.5 135C1003.17 129 1017.2 135.9 1020 143.5" stroke="#0E0E0E" stroke-width="2" stroke-linecap="round"/>
<path d="M1006 58.5C994 73.5 985 113 982.5 134.5" stroke="#0E0E0E" stroke-width="2" stroke-linecap="round"/>
<ellipse cx="1004.34" cy="66.9345" rx="4.5" ry="9.96792" transform="rotate(25.4227 1004.34 66.9345)" fill="#0E0E0E"/>
<ellipse cx="997.798" cy="153.785" rx="4.5" ry="12.2646" transform="rotate(19.3437 997.798 153.785)" fill="#0E0E0E"/>
<ellipse cx="992.925" cy="66.1574" rx="2.47359" ry="7.78799" transform="rotate(14.2705 992.925 66.1574)" fill="#0E0E0E"/>
<path d="M1007 59C1008.5 55 1011.94 53 1016.5 53C1018 53 1026.89 53.0943 1025 72C1022.5 97 1014.5 131.5 1018 139C1021.5 146.5 1024.5 149 1022 160.5C1019.5 172 1020 189.5 1020 199C1020 208.5 1028.73 245 1013.5 263C1002.5 276 991.5 285.5 968.5 290.5C958.475 292.679 927.5 325.5 844 317C806 313.132 745.5 281 679 288.5C612.5 296 592.5 308.5 524 303C451.157 297.151 400 247.611 345 241.5C256.849 231.706 188.361 237.597 143.5 249C23.5 279.5 -47.5 287.5 -103 279.5C-158.5 271.5 -180.5 256.5 -209 234.5C-233.628 215.488 -292.5 164.5 -284.5 111C-276.5 57.4997 -261.229 13.9999 -195 14C-162.5 14.0001 -89.5 37.9999 -89.5 147C-89.5 209.099 -156.5 262 -250.5 279.5C-344.5 297 -419.5 273 -479 251.5C-519.216 236.968 -549.5 227.5 -563 222.5V136.5C-528 136.5 -450.87 176.626 -414 184C-384 190 -329.5 203 -262.5 194.5C-200.521 186.637 -166.5 191 -160 131C-155.046 85.2676 -184.5 79.5 -195 82C-214.456 86.6324 -229.628 120.351 -209 150.5C-176.5 198 -110.5 198.567 -26 194.5C67.5 190 180.5 133 345 150.5C412.329 157.663 482.5 242.987 638 205.5C694 192 754.5 201 808.5 218.5C862.5 236 920.073 230.28 955 204.5C976 189 968.5 153 973 134C977.5 114.999 991.5 64 991.5 64C994 52 1002 51.5 1007 59Z" stroke="#0E0E0E" stroke-width="2"/>
<path d="M1088.26 204.5C1088.66 191.3 1080.76 153 1069.76 135C1066.1 129 1052.06 135.9 1049.26 143.5" stroke="#0E0E0E" stroke-width="2" stroke-linecap="round"/>
<path d="M1063.26 58.5C1075.26 73.5 1084.26 113 1086.76 134.5" stroke="#0E0E0E" stroke-width="2" stroke-linecap="round"/>
<ellipse cx="4.5" cy="9.96792" rx="4.5" ry="9.96792" transform="matrix(-0.903165 0.429293 0.429293 0.903165 1064.7 56)" fill="#0E0E0E"/>
<ellipse cx="4.5" cy="12.2646" rx="4.5" ry="12.2646" transform="matrix(-0.943549 0.331234 0.331234 0.943549 1071.65 140.722)" fill="#0E0E0E"/>
<ellipse cx="2.47359" cy="7.78799" rx="2.47359" ry="7.78799" transform="matrix(-0.969143 0.2465 0.2465 0.969143 1076.82 58)" fill="#0E0E0E"/>
<path d="M1062.26 59C1060.76 55 1057.32 53 1052.76 53C1051.26 53 1042.37 53.0943 1044.26 72C1046.76 97 1054.76 131.5 1051.26 139C1047.76 146.5 1044.76 149 1047.26 160.5C1049.76 172 1049.26 189.5 1049.26 199C1049.26 208.5 1040.53 245 1055.76 263C1066.76 276 1077.76 285.5 1100.76 290.5C1110.79 292.679 1141.76 325.5 1225.26 317C1263.26 313.132 1323.76 281 1390.26 288.5C1456.76 296 1476.76 308.5 1545.26 303C1618.11 297.151 1669.26 247.611 1724.26 241.5C1812.41 231.706 1880.9 237.597 1925.76 249C2045.76 279.5 2116.76 287.5 2172.26 279.5C2227.76 271.5 2249.76 256.5 2278.26 234.5C2302.89 215.488 2361.76 164.5 2353.76 111C2345.76 57.4997 2330.49 13.9999 2264.26 14C2231.76 14.0001 2158.76 37.9999 2158.76 147C2158.76 209.099 2225.76 262 2319.76 279.5C2413.76 297 2488.76 273 2548.26 251.5C2588.48 236.968 2618.76 227.5 2632.26 222.5V136.5C2597.26 136.5 2520.13 176.626 2483.26 184C2453.26 190 2398.76 203 2331.76 194.5C2269.78 186.637 2235.76 191 2229.26 131C2224.31 85.2676 2253.76 79.5 2264.26 82C2283.72 86.6324 2298.89 120.351 2278.26 150.5C2245.76 198 2179.76 198.567 2095.26 194.5C2001.76 190 1888.76 133 1724.26 150.5C1656.93 157.663 1586.76 242.987 1431.26 205.5C1375.26 192 1314.76 201 1260.76 218.5C1206.76 236 1149.19 230.28 1114.26 204.5C1093.26 189 1100.76 153 1096.26 134C1091.76 114.999 1077.76 64 1077.76 64C1075.26 52 1067.26 51.5 1062.26 59Z" stroke="#0E0E0E" stroke-width="2"/>
<path d="M1015.6 39.6695L1005.2 16.2778" stroke="#0E0E0E" stroke-width="4" stroke-linecap="round"/>
<path d="M1040.79 33.0058L1045.55 5.71558" stroke="#0E0E0E" stroke-width="4" stroke-linecap="round"/>
<path d="M1064.18 41.2364L1071.54 35.1719" stroke="#0E0E0E" stroke-width="4" stroke-linecap="round"/>
</svg>
