<svg width="36" height="30" viewBox="0 0 36 30" fill="none" xmlns="http://www.w3.org/2000/svg">
<path fill-rule="evenodd" clip-rule="evenodd" d="M12.679 0.261865C5.14838 5.09809 0.964815 10.7271 0.128245 17.1488C-1.17411 27.1459 7.76609 32.0392 12.296 27.6426C16.8259 23.246 14.1105 17.6655 10.8304 16.1401C7.55028 14.6146 5.54438 15.1459 5.89428 13.1074C6.24418 11.069 10.9108 5.41719 15.0106 2.78509C15.2826 2.55379 15.3861 2.10499 15.1242 1.76449C14.9519 1.54059 14.614 1.10144 14.1105 0.447014C13.6702 -0.125256 13.2484 -0.103835 12.679 0.261865Z" fill="black"/>
<path fill-rule="evenodd" clip-rule="evenodd" d="M32.5046 0.261865C24.9741 5.09809 20.7905 10.7271 19.9539 17.1488C18.6516 27.1459 27.5918 32.0392 32.1217 27.6426C36.6516 23.246 33.9362 17.6655 30.6561 16.1401C27.376 14.6146 25.37 15.1459 25.72 13.1074C26.0699 11.069 30.7365 5.41719 34.8363 2.78509C35.1083 2.55379 35.2118 2.10499 34.9498 1.76449C34.7776 1.54059 34.4397 1.10144 33.9362 0.447014C33.4959 -0.125256 33.0741 -0.103835 32.5046 0.261865Z" fill="black"/>
</svg>
