<svg width="1920" height="528" viewBox="0 0 1920 528" fill="none" xmlns="http://www.w3.org/2000/svg">
<path d="M0 211L160 375H0L0 211Z" fill="#FCD05E"/>
<path opacity="0.2" d="M0 375L160 538H0L0 375Z" fill="#0E0E0E"/>
<path opacity="0.1" d="M163 375L323 538H163L163 375Z" fill="#0E0E0E"/>
<rect opacity="0.1" x="141" y="233" width="163" height="164" rx="81.5" fill="#0E0E0E"/>
<path opacity="0.2" d="M342 -3L403.114 -38.2841C435.366 -56.9049 476.607 -45.8545 495.227 -13.6023V-13.6023C513.848 18.6498 502.798 59.8904 470.546 78.5112L409.432 113.795L342 -3Z" fill="#0E0E0E"/>
<path opacity="0.1" d="M1490.35 185.378C1499.93 154.794 1532.49 137.767 1563.08 147.348L1784.59 216.741C1815.17 226.323 1832.2 258.883 1822.62 289.468V289.468C1813.04 320.053 1780.48 337.08 1749.89 327.498L1528.38 258.105C1497.79 248.524 1480.77 215.963 1490.35 185.378V185.378Z" fill="#0E0E0E"/>
<path d="M1512.48 406V406C1527.89 459.101 1497.34 514.646 1444.24 530.063L1433.06 533.309C1379.96 548.726 1324.42 518.177 1309 465.076V465.076L1512.48 406Z" fill="#FCD05E"/>
<path opacity="0.2" d="M1498 -3V-3C1498 50.0193 1455.02 93 1402 93L1391 93C1337.98 93 1295 50.0193 1295 -3V-3L1498 -3Z" fill="#0E0E0E"/>
<g opacity="0.2">
<path d="M600.602 397.025V397.025C586.699 448.91 533.368 479.7 481.484 465.798L478.945 465.118C427.06 451.215 396.27 397.884 410.172 346V346L600.602 397.025Z" fill="#0E0E0E"/>
<path d="M554.899 384.779V384.779C547.759 411.423 520.373 427.234 493.73 420.095L491.191 419.415C464.548 412.276 448.736 384.889 455.875 358.246V358.246L554.899 384.779Z" fill="#0E0E0E"/>
</g>
</svg>
