<svg width="69" height="66" viewBox="0 0 69 66" fill="none" xmlns="http://www.w3.org/2000/svg">
<circle opacity="0.15" cx="42" cy="39" r="27" fill="#376BCB"/>
<path d="M22.044 0.0336914C34.54 0.0336914 44 10.2791 44 22.0006C44 35.595 32.912 44.0337 22 44.0337C18.392 44.0337 14.388 43.0642 11.176 41.1694C10.054 40.4864 9.108 39.9796 7.898 40.3762L3.454 41.6982C2.332 42.0507 1.32 41.1694 1.65 39.9796L3.124 35.0442C3.366 34.3612 3.322 33.6341 2.97 33.0612C1.078 29.58 0 25.7683 0 22.0667C0 10.4774 9.262 0.0336914 22.044 0.0336914ZM32.098 19.2685C30.536 19.2685 29.282 20.5244 29.282 22.0888C29.282 23.6311 30.536 24.909 32.098 24.909C33.66 24.909 34.914 23.6311 34.914 22.0888C34.914 20.5244 33.66 19.2685 32.098 19.2685ZM21.956 19.2685C20.416 19.2465 19.14 20.5244 19.14 22.0667C19.14 23.6311 20.394 24.887 21.956 24.909C23.518 24.909 24.772 23.6311 24.772 22.0888C24.772 20.5244 23.518 19.2685 21.956 19.2685ZM11.814 19.2685C10.252 19.2685 8.998 20.5244 8.998 22.0888C8.998 23.6311 10.274 24.909 11.814 24.909C13.376 24.887 14.63 23.6311 14.63 22.0888C14.63 20.5244 13.376 19.2685 11.814 19.2685Z" fill="#376BCB"/>
</svg>
