<svg width="69" height="65" viewBox="0 0 69 65" fill="none" xmlns="http://www.w3.org/2000/svg">
<circle opacity="0.08" cx="42" cy="38" r="27" fill="#0E0E0E"/>
<path d="M41.7612 39.2134C43.1306 39.2134 44.2444 40.3417 44.2444 41.7289C44.2444 43.1188 43.1306 44.2444 41.7612 44.2444H27.7257C26.3563 44.2444 25.2426 43.1188 25.2426 41.7289C25.2426 40.3417 26.3563 39.2134 27.7257 39.2134H41.7612ZM32.0277 1.71831L35.6533 4.59843C37.14 5.76104 38.1312 7.29358 38.4703 8.90539C38.8615 10.6784 38.4442 12.4197 37.2704 13.9258L15.6733 41.8549C14.6821 43.1233 13.2215 43.8367 11.6565 43.8631L3.04892 43.9688C2.57941 43.9688 2.18816 43.6517 2.08383 43.2025L0.127567 34.7207C-0.211518 33.1618 0.127567 31.55 1.11874 30.3081L16.4297 10.4908C16.6906 10.1737 17.1601 10.1235 17.4731 10.3587L23.9157 15.4847C24.333 15.8282 24.9069 16.0132 25.5068 15.9339C26.7849 15.7754 27.6456 14.6128 27.5152 13.3709C27.437 12.7367 27.124 12.2083 26.7066 11.8119C26.5762 11.7062 20.4466 6.79154 20.4466 6.79154C20.0553 6.47446 19.9771 5.89316 20.2901 5.49945L22.7159 2.35247C24.959 -0.527647 28.8716 -0.791878 32.0277 1.71831Z" fill="#0E0E0E"/>
</svg>
