<svg width="69" height="66" viewBox="0 0 69 66" fill="none" xmlns="http://www.w3.org/2000/svg">
<circle opacity="0.08" cx="42" cy="39" r="27" fill="#0E0E0E"/>
<path d="M31.9971 0C39.5629 0 44.6456 5.30861 44.6456 13.2078V31.4378C44.6456 39.337 39.5629 44.6456 31.9948 44.6456H12.6485C5.08266 44.6456 0 39.337 0 31.4378V13.2078C0 5.30861 5.08266 0 12.6485 0H31.9971ZM34.4588 23.5507C32.0659 22.0579 30.2185 24.1542 29.7202 24.8246C29.2398 25.4719 28.8267 26.1861 28.3913 26.9002C27.3273 28.6625 26.1084 30.6944 23.9983 31.8762C20.932 33.574 18.6043 32.0098 16.9297 30.8718C16.3012 30.4479 15.6906 30.0471 15.0823 29.7798C13.5828 29.1325 12.2337 29.8697 10.2314 32.413C9.1809 33.7422 8.13934 35.0599 7.08432 36.373C6.45355 37.1586 6.60395 38.3703 7.4547 38.8955C8.81276 39.7318 10.4694 40.181 12.3415 40.181H31.1545C32.2163 40.181 33.2803 40.0359 34.2949 39.7041C36.58 38.9577 38.3938 37.2484 39.3411 34.9908C40.1402 33.0925 40.5285 30.7889 39.781 28.8722C39.5319 28.2364 39.1592 27.6443 38.6362 27.1237C37.2647 25.7622 35.9829 24.4906 34.4588 23.5507ZM14.5073 8.92911C11.4297 8.92911 8.92911 11.4331 8.92911 14.5098C8.92911 17.5865 11.4297 20.0905 14.5073 20.0905C17.5825 20.0905 20.0854 17.5865 20.0854 14.5098C20.0854 11.4331 17.5825 8.92911 14.5073 8.92911Z" fill="#0E0E0E"/>
</svg>
