<svg width="69" height="65" viewBox="0 0 69 65" fill="none" xmlns="http://www.w3.org/2000/svg">
<circle opacity="0.2" cx="42" cy="38" r="27" fill="#0E0E0E"/>
<path d="M15.3211 6.5109C16.3993 6.30907 17.4805 6.84745 17.9509 7.82054C18.068 7.99712 18.1618 8.1876 18.2298 8.3874C18.5287 13.0004 18.8475 17.5353 19.1463 22.0702C19.1395 22.5416 19.2136 23.0107 19.3655 23.458C19.723 24.338 20.6127 24.8964 21.5769 24.8458L36.2205 23.9076L36.3201 23.9467L36.5874 23.9659C37.1167 24.0336 37.6103 24.2753 37.985 24.6555C38.4221 25.0991 38.6618 25.6949 38.6515 26.3118C38.0741 34.7204 31.9093 41.7461 23.5198 43.5561C15.1303 45.3661 6.53008 41.5259 2.41082 34.1306C1.19958 32.0006 0.434166 29.6547 0.089499 27.2305C0.0529691 26.5122 0.00632707 25.7866 0.0200366 25.0608C0.0478015 16.1195 6.41371 8.40194 15.3211 6.5109ZM24.0275 0.00181478C34.0833 0.302841 42.4873 7.60276 44.0104 17.3594C44.0201 17.4176 44.0201 17.477 44.0104 17.5353L44.0077 17.8107C43.9747 18.1748 43.8252 18.5221 43.5769 18.8009C43.2666 19.1494 42.8275 19.3622 42.3568 19.3923L25.462 20.5064L25.1836 20.512C24.7225 20.4894 24.2802 20.3101 23.9358 20C23.5224 19.6279 23.288 19.1021 23.2903 18.5517L22.1547 1.9565V1.68284C22.1754 1.21611 22.3844 0.776607 22.7357 0.461258C23.0871 0.145909 23.5518 -0.019389 24.0275 0.00181478Z" fill="#0E0E0E"/>
</svg>
