<svg width="67" height="65" viewBox="0 0 67 65" fill="none" xmlns="http://www.w3.org/2000/svg">
<circle opacity="0.08" cx="40" cy="38" r="27" fill="#0E0E0E"/>
<path d="M34.2538 34.3274C35.1014 33.4856 36.4601 33.4856 37.3077 34.3274L42.9097 38.8494H43.0069C44.1403 39.9949 44.1403 41.8522 43.0069 42.9978C41.8736 44.1433 40.036 44.1433 38.9027 42.9978L34.2538 37.6698L34.0774 37.4707C33.7488 37.0547 33.5673 36.5361 33.5673 35.9986C33.5673 35.3715 33.8143 34.7701 34.2538 34.3274ZM18.8095 0C23.798 0 28.5823 2.00303 32.1097 5.56843C35.6372 9.13384 37.6189 13.9696 37.6189 19.0118C37.6189 29.5118 29.1976 38.0236 18.8095 38.0236C8.42128 38.0236 0 29.5118 0 19.0118C0 8.51188 8.42128 0 18.8095 0Z" fill="#0E0E0E"/>
</svg>
