<?xml version="1.0" encoding="UTF-8"?>
<svg xmlns="http://www.w3.org/2000/svg" width="41" height="41" viewBox="0 0 41 41" fill="none">
  <path d="M14.5049 6.22271C15.4852 6.03923 16.468 6.52867 16.8957 7.41329C17.0022 7.57382 17.0874 7.74698 17.1493 7.92862C17.4209 12.1223 17.7107 16.2449 17.9824 20.3675C17.9762 20.796 18.0436 21.2225 18.1816 21.6292C18.5067 22.4292 19.3155 22.9368 20.1921 22.8908L33.5044 22.0379L33.595 22.0734L33.8379 22.0909C34.3192 22.1525 34.7678 22.3722 35.1085 22.7178C35.5059 23.121 35.7237 23.6627 35.7144 24.2236C35.1895 31.8677 29.5851 38.2547 21.9583 39.9002C14.3315 41.5456 6.51312 38.0546 2.76834 31.3315C1.66721 29.3951 0.971379 27.2625 0.721681 25.0587C0.624836 24.4057 0.582434 23.7461 0.594897 23.0863C0.620138 14.9578 6.40733 7.94184 14.5049 6.22271ZM22.4199 0.305361C31.5615 0.57902 39.2015 7.21531 40.5862 16.085C40.595 16.1379 40.595 16.1919 40.5862 16.2449L40.5837 16.4953C40.5536 16.8263 40.4177 17.142 40.192 17.3954C39.9099 17.7122 39.5108 17.9057 39.0829 17.933L23.7239 18.9459L23.4709 18.9509C23.0516 18.9305 22.6496 18.7674 22.3365 18.4856C21.9607 18.1473 21.7476 17.6693 21.7497 17.1689L20.7173 2.08234V1.83357C20.7361 1.40926 20.9262 1.00972 21.2455 0.723036C21.5649 0.436355 21.9874 0.286085 22.4199 0.305361Z" fill="white"></path>
</svg>
